{"title":"Naruto Shippuuden Episodes  1-16 Manga Edit MP4 OOTR","uid":7941235,"size":975849413,"categoryP":"video","categoryS":"tv_shows","magnet":"?xt=urn:btih:5a1ef399c909736ba27046c6f47731e6d5f7a7e5&amp;dn=Naruto+Shippuuden+Episodes++1-16+Manga+Edit+MP4+OOTR&amp;tr=udp%3A%2F%2Ftracker.openbittorrent.com%3A80&amp;tr=udp%3A%2F%2Fopen.demonii.com%3A1337&amp;tr=udp%3A%2F%2Ftracker.coppersurfer.tk%3A6969&amp;tr=udp%3A%2F%2Fexodus.desync.com%3A6969","seeders":1,"leechers":0,"uploader":"OOTR","files":1,"time":1355988461,"description":"I cut episodes 1-16 of Naruto Shippuuden together so that it more accurately follows the manga.  \n\nIts not perfect.  \n\nWhile I have striven to make this contiguous, I'm still new to video editing and there are some noticeable jumps between some scenes.\n\nSome parts might seem odd because they are &quot;out of anime&quot; order, where a scene in the manga may follow all at one time, that same scene could be broken up and otherwise presented in the anime timeline.  Some stuff isn't in the manga.  I tried to keep all the fun fight scenes cut in, even if they weren't detailed in the manga.  In the same sense I tried to remove any extraneous backstory or flashbacks, because we've all seen the show and know the backstory...besides the fact that its already over 4hrs long.  Some parts flow better in the anime presentation.  \n\nOne key thing you should notice is that most of the fight scenes are much more coherent and do not jump back and forth between different battles.  \n\n\nFormat                                   : MPEG-4\nFormat profile                           : Base Media / Version 2\nCodec ID                                 : mp42\nFile size                                : 931 MiB\nDuration                                 : 4h 9mn\nOverall bit rate mode                    : Variable\nOverall bit rate                         : 522 Kbps\nEncoded date                             : UTC 2012-12-20 04:25:06\n\nVideo\nID                                       : 1\nFormat                                   : AVC\nFormat/Info                              : Advanced Video Codec\nFormat profile                           : &lt;a class=&quot;__cf_email__&quot; href=&quot;/cdn-cgi/l/email-protection&quot; data-cfemail=&quot;1159787679515d223f21&quot;&gt;[email&amp;#160;protected]&lt;/a&gt;&lt;script cf-hash='f9e31' type=&quot;text/javascript&quot;&gt;\n/* &lt;![CDATA[ */!function(){try{var t=&quot;currentScript&quot;in document?document.currentScript:function(){for(var t=document.getElementsByTagName(&quot;script&quot;),e=t.length;e--;)if(t[e].getAttribute(&quot;cf-hash&quot;))return t[e]}();if(t&amp;&amp;t.previousSibling){var e,r,n,i,c=t.previousSibling,a=c.getAttribute(&quot;data-cfemail&quot;);if(a){for(e=&quot;&quot;,r=parseInt(a.substr(0,2),16),n=2;a.length-n;n+=2)i=parseInt(a.substr(n,2),16)^r,e+=String.fromCharCode(i);e=document.createTextNode(e),c.parentNode.replaceChild(e,c)}}}catch(u){}}();/* ]]&gt; */&lt;/script&gt;\nFormat settings, CABAC                   : Yes\nFormat settings, ReFrames                : 3 frames\nCodec ID                                 : avc1\nCodec ID/Info                            : Advanced Video Coding\nDuration                                 : 4h 9mn\nSource duration                          : 4h 9mn\nBit rate                                 : 393 Kbps\nWidth                                    : 640 pixels\nHeight                                   : 480 pixels\nDisplay aspect ratio                     : 4:3\nFrame rate mode                          : Variable\nFrame rate                               : 23.976 fps\nMinimum frame rate                       : 23.976 fps\nMaximum frame rate                       : 24.000 fps\nStandard                                 : NTSC\nColor space                              : YUV\nChroma subsampling                       : 4:2:0\nBit depth                                : 8 bits\nScan type                                : Progressive\nBits/(Pixel*Frame)                       : 0.053\nStream size                              : 700 MiB (75%)\nSource stream size                       : 700 MiB (75%)\nLanguage                                 : English\nEncoded date                             : UTC 2012-12-20 04:25:06\n\nAudio\nID                                       : 2\nFormat                                   : AAC\nFormat/Info                              : Advanced Audio Codec\nFormat profile                           : LC\nCodec ID                                 : 40\nDuration                                 : 4h 9mn\nSource duration                          : 4h 9mn\nBit rate mode                            : Variable\nBit rate                                 : 125 Kbps\nMaximum bit rate                         : 211 Kbps\nChannel(s)                               : 2 channels\nChannel positions                        : Front: L R\nSampling rate                            : 48.0 KHz\nCompression mode                         : Lossy\nStream size                              : 223 MiB (24%)\n","torrent":{"xt":"urn:btih:5a1ef399c909736ba27046c6f47731e6d5f7a7e5","amp;dn":"Naruto+Shippuuden+Episodes++1-16+Manga+Edit+MP4+OOTR","amp;tr":["udp%3A%2F%2Ftracker.openbittorrent.com%3A80","udp%3A%2F%2Fopen.demonii.com%3A1337","udp%3A%2F%2Ftracker.coppersurfer.tk%3A6969","udp%3A%2F%2Fexodus.desync.com%3A6969"],"infoHash":"5a1ef399c909736ba27046c6f47731e6d5f7a7e5","infoHashBuffer":{"type":"Buffer","data":[90,30,243,153,201,9,115,107,162,112,70,198,244,119,49,230,213,247,167,229]},"announce":[],"urlList":[]}}